<svg xmlns="http://www.w3.org/2000/svg" viewBox="0 0 490.48 117.79"><defs><style>.cls-1,.cls-2{fill:#fff;}.cls-2{fill-rule:evenodd;}</style></defs><g id="Camada_2" data-name="Camada 2"><g id="Layer_1" data-name="Layer 1"><path class="cls-1" d="M199.67,59.12H169.4A1.42,1.42,0,0,0,168,60.54v14.8a1.41,1.41,0,0,0,1.41,1.41h11.81V95.14s-2.65.9-10,.9c-8.65,0-20.73-3.16-20.73-29.72s12.58-30.07,24.39-30.07c10.22,0,14.63,1.8,17.43,2.67A1.42,1.42,0,0,0,194,37.53l3.38-14.29a1.31,1.31,0,0,0-.54-1.11c-1.14-.81-8.08-4.7-25.62-4.7C151,17.43,130.3,26,130.3,67.36S154,114.84,174,114.84c16.56,0,26.6-7.08,26.6-7.08.42-.22.46-.8.46-1.07V60.54A1.42,1.42,0,0,0,199.67,59.12Z"/><path class="cls-1" d="M355.65,22.39a1.41,1.41,0,0,0-1.4-1.43h-17a1.43,1.43,0,0,0-1.42,1.43V55.32H309.23V22.39a1.41,1.41,0,0,0-1.4-1.43h-17a1.42,1.42,0,0,0-1.41,1.43v89.17a1.42,1.42,0,0,0,1.41,1.43h17a1.41,1.41,0,0,0,1.4-1.43V73.42H335.8l-.05,38.14a1.42,1.42,0,0,0,1.41,1.43h17.09a1.41,1.41,0,0,0,1.4-1.43Z"/><path class="cls-1" d="M231.83,34.09a11,11,0,1,0-11,11.1A11,11,0,0,0,231.83,34.09Z"/><path class="cls-1" d="M230.61,92.75V51.59a1.42,1.42,0,0,0-1.41-1.42h-17a1.62,1.62,0,0,0-1.48,1.58v59c0,1.73,1.08,2.25,2.48,2.25h15.31c1.68,0,2.09-.83,2.09-2.28Z"/><path class="cls-1" d="M420.42,50.3H403.51a1.42,1.42,0,0,0-1.41,1.43V95.45a19,19,0,0,1-10.39,3.15c-6.1,0-7.72-2.77-7.72-8.74V51.73a1.42,1.42,0,0,0-1.41-1.43H365.42A1.43,1.43,0,0,0,364,51.73v41c0,17.73,9.89,22.07,23.48,22.07,11.16,0,20.15-6.16,20.15-6.16s.43,3.24.62,3.63a1.51,1.51,0,0,0,1.25.77l10.92,0a1.42,1.42,0,0,0,1.41-1.42V51.73A1.42,1.42,0,0,0,420.42,50.3Z"/><path class="cls-1" d="M466.64,48.3a31.86,31.86,0,0,0-16.14,4.28V22.39A1.42,1.42,0,0,0,449.1,21H432a1.42,1.42,0,0,0-1.41,1.43v89.17A1.42,1.42,0,0,0,432,113h11.86a1.41,1.41,0,0,0,1.23-.76,27.09,27.09,0,0,0,.72-4.11s7,6.62,20.22,6.62c15.53,0,24.44-7.87,24.44-35.36S476.25,48.3,466.64,48.3ZM460,98.54a20.3,20.3,0,0,1-9.84-2.84V67.46a22.54,22.54,0,0,1,8.74-2.83c6.09-.55,12,1.29,12,15.82C470.83,95.77,468.18,98.79,460,98.54Z"/><path class="cls-1" d="M279.59,50.16H266.81l0-16.89c0-.64-.33-1-1.07-1H248.3c-.68,0-1,.3-1,.95V50.71s-8.73,2.11-9.32,2.28a1.41,1.41,0,0,0-1,1.36v11a1.41,1.41,0,0,0,1.4,1.42h8.94V93.13c0,19.59,13.74,21.52,23,21.52A38.72,38.72,0,0,0,280.42,113a1.32,1.32,0,0,0,.8-1.28l0-12.07a1.44,1.44,0,0,0-1.41-1.42c-.75,0-2.66.3-4.62.3-6.28,0-8.4-2.92-8.4-6.7s0-25.07,0-25.07h12.79A1.41,1.41,0,0,0,281,65.32V51.58A1.41,1.41,0,0,0,279.59,50.16Z"/><path class="cls-2" d="M60.39,0A60.39,60.39,0,0,0,41.3,117.69c3,.56,4.12-1.31,4.12-2.91,0-1.44-.05-6.19-.08-11.24C28.54,107.19,25,96.42,25,96.42c-2.75-7-6.71-8.84-6.71-8.84-5.48-3.75.41-3.67.41-3.67,6.07.43,9.26,6.22,9.26,6.22,5.39,9.23,14.13,6.57,17.57,5,.55-3.9,2.11-6.56,3.84-8.07C36,85.55,21.85,80.37,21.85,57.23A23.35,23.35,0,0,1,28.08,41c-.63-1.52-2.7-7.66.58-16,0,0,5.07-1.62,16.61,6.19a57.36,57.36,0,0,1,30.25,0C87,23.42,92.11,25,92.11,25c3.28,8.32,1.22,14.46.59,16a23.34,23.34,0,0,1,6.21,16.21c0,23.2-14.12,28.3-27.57,29.8,2.16,1.87,4.09,5.55,4.09,11.18,0,8.08-.06,14.59-.06,16.57,0,1.61,1.08,3.49,4.14,2.9A60.39,60.39,0,0,0,60.39,0Z"/><path class="cls-1" d="M22.87,86.7c-.13.3-.6.39-1,.19s-.69-.61-.55-.91.61-.39,1-.19.69.61.54.91Z"/><path class="cls-1" d="M25.32,89.43c-.29.27-.85.14-1.24-.28a.92.92,0,0,1-.17-1.25c.3-.27.84-.14,1.24.28s.47,1,.17,1.25Z"/><path class="cls-1" d="M27.7,92.91c-.37.26-1,0-1.35-.52s-.37-1.18,0-1.44,1,0,1.35.51.37,1.19,0,1.45Z"/><path class="cls-1" d="M31,96.27A1.13,1.13,0,0,1,29.41,96c-.53-.49-.68-1.18-.34-1.54s1-.27,1.56.23.68,1.18.33,1.54Z"/><path class="cls-1" d="M35.46,98.22c-.15.47-.82.69-1.51.49s-1.13-.76-1-1.24.82-.7,1.51-.49,1.13.76,1,1.24Z"/><path class="cls-1" d="M40.4,98.58c0,.5-.56.91-1.28.92s-1.3-.38-1.31-.88.56-.91,1.29-.92,1.3.39,1.3.88Z"/><path class="cls-1" d="M45,97.8c.09.49-.41,1-1.12,1.12s-1.35-.17-1.44-.66.42-1,1.12-1.12,1.35.17,1.44.66Z"/></g></g></svg>